<svg width="587" height="347" viewBox="0 0 587 347" xmlns="http://www.w3.org/2000/svg"><title>Group 4</title><g transform="translate(-430 -726)" fill="none" fill-rule="evenodd"><g stroke="#F00" stroke-width="1.2" stroke-linecap="round" stroke-linejoin="round"><path d="M461.656 565.267l139.157-32.546 14.263-43.014 30.84-28.742 4.499-77.822 30.611-5.712 24.966 45.039-12.892 15.804 21.66 39.077 47.04-26.074-10.77 30.795s23.747 35.32 21.223 31.812l14.576-8.08 27.266 32.078 41.498-9.586 17.12 19.949-35.886 121.195 17.116 91.815-69.093 9.727-42.208-19.896-54.822 10.474 26.383 17.82-38.184 30.371-17.671-7.611-38.82 44.03 8.812 15.896-63.983-21.68-10.02-70.587-32.973-39.786-31.054 21.214-15.222-102.16-12.383.903-1.049-84.703z"/><path d="M863.67 769.428l-10.205-58.141 31.369-23.702 14.467 3.936 23.545-35.13 24.18-.125 10.025-12.123 13.38 20.457 32.37-5.628 2.081-9.525 5.624 4.676 31.98-12.1 6.148-14.95 21.311 22.82-5.857 16.521 21.096-3.61 6.118 11.037 41.286-33.85 11.486 36.347-3.02 36.214-10.483 23.8 56.917 25.595 2.435 14.81-19.179.82-2.41 7.109 8.578 5.056-5.366 17.407L1055.1 907.483l-76.157-58.222-26.385 44.642-10.64 41.685-45.598-14.554-21.34 22.784-8.96-33.695-44.417-63.982-9.277-37.574-20.692-29.204zm-154.543-4.194l33.493-5.26 39.278 19.355 21.613 31.96 7.522 33.494-16.411 6.718 5.705 30.605-12.443 6.364-17.356-3.485-6.706-26.154-29.7 5.795 14.245-34.459-26.37-2.267-18.381-28.635 26.122-20.68z"/><path d="M898.968 931.544l-28.493 30.89-11.935-48.742-44.13-60.606-9.978 3.904 5.087 29.327-10.214 5.661 8.322 15.014 10.214-5.661 18.479 33.336-7.203 16.693 25.77 69.41 20.692 5.56 8.102 15.135 36.08 16.653 30.697-17.015 8.077 14.571 16.123-8.937 9.239-16.664 13.47-7.467-15.052-27.156-5.75-34.335-11.706 6.489-4.282-7.725-10.158 5.63-11.147-21.022z"/><path d="M949.706 943.392l11.55-44.787 20.884-35.244 70.078 53.512 10.088 37.987-9.49 21.424 18.092 5.556 1.544 68.411-57.05-12.821-24.888-43.856-6.913-46.459-15.066 8.351-4.51-8.25-9.332 5.173zm-111.593 57.005l11.013 28.037 20.846 6.125 8.476 15.434 26.669 11.913-6.368 10.456-32.278-12.987-9.794 8.892-14.253-8.263-13.068 8.976-9.3-16.779 3.224-11.89-25.653-21.279 13.715-4.426zM63.662 543.877l-4.148-17.902 51.352-46.939-16.79-30.809 52.522 7.252 14.808-18.598 26.037 6.347 25.56-28.887 9.25 18.25 64.831-14.29 35.153 13.416-2.758-16.425 16.24-1.439-20.503-54.12 13.06-1.496-18.245-29.858 58.039-31.163 19.09 34.441 24.51 12.967-7.334 24.268 47.617 190.065.722 102.346 12.85-.774 15.204 92.009-96.468-52.159-93.612-16.799-23.284 31.956L240.7 699.72l-41.987 1.34-19.142-30.37-39.677-2.83-35.85-93.839z"/></g><circle stroke="#FF0606" stroke-dasharray="20" transform="rotate(-24 835.355 721.83)" cx="835.355" cy="721.83" r="304"/></g></svg>