<svg width="396" height="291" viewBox="0 0 396 291" xmlns="http://www.w3.org/2000/svg"><title>colosseum</title><g stroke="#F00" stroke-width="1.2" fill="none" fill-rule="evenodd" opacity=".495"><path d="M495.434 305.018v-50.701l-97.112-18.468-117.69-4.867h-83.133v71.955z"/><path d="M495.327 248.383v-47.616l-67.086-27.64-97.013-11.894-93.483-1.896v64.57l42.844.131 119.263 4.724z"/><path d="M495.421 195.068v-47.93l-50.053-29.43-85.148-24.96-67.928-10.076-12.659 49.751h-34.87v21.264l87.875 1.441 97.321 12.613z"/><path d="M495.554 140.585V92.192l-40.427-29.508-50.203-21.805-69.72-19.76-21.927 47.743h-17.91l-1.578 7.793 67.933 10.22 85.239 25.35z"/><path d="M495.833 64.499v20.053l-36.7-26.998-51.96-22.462-69.32-19.028L344.9 1.572l68.698 19.24 51.736 21.193zm-393.191 234.5v-68.017h87.585v70.825zm42.613-75.282v-55.276h85.423v55.62zm7.628-62.047h77.439v-8.26h7.236v-8.166h-23.195v-7.304h-19.05v7.195h-42.43z"/><path d="M70.554 144.858l-51.786 15.431L1.32 173.956v125.357h94.787v-75.708h41.912v-62.123h8.903v-16.624z"/><path d="M379.824 249.514v48.641h-17.429v-50.25l17.429 1.609zm-38.21-3.014v53.256h-24.431v-54.392l24.43 1.136zm-48.059-1.858v51.912h-29.237v-53.201l29.237 1.289zm-78.897 51.912h-.6l.6.6v-.6zm29.237-53.228v53.228h-29.237v-53.228h29.237zm168.204-58.853v35.611l-18.023-2.133v-35.605l18.023 2.127zm-28.835-3.647v36.515l-24.431-1.216v-37.92l24.431 2.62zm-41.65-4.452v39.068l-26.033-1.051v-41.196l26.033 3.18zm-46.457-4.662v42.024l-29.237-.97v-42.117l29.237 1.063zm44.855-72.534v46.845l-29.237-3.089v-47.55l29.237 3.794zm40.048 10.635v42.122l-24.43-3.562v-45.5l24.43 6.94zm32.249 8.064v38.277l-18.023-2.488V112.56l18.023 5.317zm-11.424-71.454v14.809h-6.81V46.423h6.81zm-32.038 16.009V77.24h-6.81V62.432h6.81zM19.623 174.49h-6.81v18.01h6.81zm20.826-6.403h-6.81v18.01h6.81zm20.825-6.404h-6.81v18.01h6.81zm20.825-4.802h-6.81v18.01h6.81zm19.223 0h-6.81v18.01h6.81zm19.224 0h-6.81v18.01h6.81zM10.741 244.078v-31.99l3.901-2.353v32.928zm13.418-37.188l6.108-2.835v34.777l-6.108 1.282zm18.168 31.338v-37.027l11.48-.73v37.757zm36.778-38.807H67.489v38.821h11.616zm-62.239 60.016l.01 32.66h-6.81V260.52l6.8-1.082zm28.199-3.253v35.568H30.908V257.36l14.157-1.177zm34.12-3.221v38.789H61.16v-37.835l18.024-.954zm99.988-9.946h-27.635v53.228h27.635zm-36.869 0h-27.635v53.228h27.635zm77.048-64.787h-27.635v34.964h27.635zm-36.869 0h-27.635v34.964h27.635z" opacity=".704"/><path d="M80.81 322.403C93.628 93.092 266.08-5.085 486.82 47.433" stroke-dasharray="20"/></g></svg>