<?xml version="1.0" encoding="utf-8"?>
<!-- Generator: Adobe Illustrator 21.1.0, SVG Export Plug-In . SVG Version: 6.00 Build 0)  -->
<svg version="1.1" id="Layer_1" xmlns="http://www.w3.org/2000/svg" xmlns:xlink="http://www.w3.org/1999/xlink" x="0px" y="0px"
	 viewBox="0 0 180 180" style="enable-background:new 0 0 180 180;" xml:space="preserve">
<style type="text/css">
	.st0{fill:#1D1D1B;}
</style>
<path class="st0" d="M168.2,36.5l-0.4-30.3c0-2.5-2.1-4.5-4.6-4.5h-22.6c-2.5,0,0.3,2,0.3,4.5l-0.3,21.6l-15.3-0.2L125,6.2
	c0-2.5-2.1-4.5-4.6-4.5H97c-2.5,0,0.3,1.4,0.3,4l0,20.2H80.9V6.3c0-2.5-1.4-4.6-3.9-4.6H54.2c-2.5,0,0.3,1.4,0.3,3.9l-0.3,20.3H37.5
	l0.3-20.1c0-1.2-0.4-1.8-1.3-2.7c-0.9-0.9-2-1.4-3.3-1.4H12.9c-2.5,0,0.3,2.1,0.3,4.6V39c0,13.8,5.8,20.2,19.4,20.7l0,0v80.5l-15,38
	H162l-13.8-38.7l-0.4-80.2l0,0C169,59.1,168.2,48,168.2,36.5z M102.7,75.9v54H78.5V77.2c0-11.9,12-12.3,12.1-12.3
	C96,64.9,102.7,69.8,102.7,75.9z"/>
</svg>
