<svg width="644" height="1017" viewBox="0 0 644 1017" xmlns="http://www.w3.org/2000/svg"><title>landen</title><g stroke="#E42420" stroke-width="1.2" fill="none" fill-rule="evenodd" opacity=".291"><path d="M-361.35 845.25l84.793-298.555-66.76-72.37-22.15-88.834-143.242-90.471 21.404-64.152h111.96l16.465 41.123h97.141V155.2l47.208 52.874s92.195-7.915 82.863-6.816V165.07l89.74-18.015 25.513-88.906 55.98-11.514L232.2 242.382l192.637 64.153-54.333 141.464-82.324 59.218-37.869 115.145 61.697-31.346 17.505 104.493-33.1 25.55 42.808 120.08h39.515L270.07 939.833 125.28 884.55 14.868 905.29l7.606 81.312-210.313-78.64-11.334 24.47-162.177-87.182z"/><path d="M242.08 225.384L59.87 37.861l46.101-18.64 36.222 27.411 64.213-23.029 72.628 38.386-11.71 35.09h26.344l23.05 46.058zm68.74 23.578l-50.369-15.97 44.198-49.828z"/><path d="M352.43-196.638l-86.479 17.917 6.586 74.844-39.515 24.674 9.879-64.975-20.581-24.674-29.636 102.809-70.799 73.2 23.051 16.449 62.566-21.384 79.853 39.077 14.272-25.51-16.741-44.821 64.087-3.652L364.33-78.17l-25.112-28.582 28.59-8.679 6.4-55.473z"/><path d="M450.633 296.665l-121.318-41.827-12.006-84.53 22.734-23.332-41.985-81.7 25.25-46.059-12.487-31.8 53.004-3.875 23.419-67.403-15.918-13.982 14.818-5.757 10.702-73.476-21.95-27.418 65.858-16.45 25.244 28.517 15.371-43.867h27.437L487.955-350.34l81.223 16.449 65.681 43.86 34.207 44.966 108.667-81.154 30.73 10.968-18.658 37.288 10.979 12.06 18.657-10.968 27.444 28.516 68.051 326.79-190.99 83.345 57.08 97.11 68.052 64.094-75.738 71.278 20.831 64.515-73.518-18.457-168.486 17.002-81.23-21.936-77.344 8.553zM279.758 585.762l25.303-69.146 78.207-54.224 83.555-7.402 71.621 20.976-4.524 38.242 64.212 21.384-1.014 30.332-24.921 29.293-56.803-14.798-20.285 62.508-50.513-63.33-32.107 47.697-73.827 4.763-11.789-71.383z"/><path d="M796.116 400.296l28.708 86.635-105.268-28.648-161.763 20.009-3.095 23.062 61.13 21.213v25.358h37.322v-25.358h82.87l24.15 31.254 159.155 24.128 32.382-33.445 37.322.546 69.699-50.993v-76.213h36.222v-40.031l-21.95-35.09v-33.445h-67.506l-71.351-25.226v29.062h-19.205v25.22l-51.725-.96z"/><path d="M406.521 875.476l-36.841.204 55.157-52.223-71.589-2.75-32.106-94.815 30.842-22.93-8.2-49.92 81.053-3.81 21.009-30.267 57.474 65.356 26.344-77.312 48.847 9.87 44.455-49.894h48.84v-25.773h52.688l25.487 30.958 90.865 12.357-.546 69.64-102.635 51.539 29.637 42.768-21.404 19.193 19.757 65.245 91.656 57.572 56.526 117.89 91.11 59.217 74.637-8.77v20.285l-25.244 21.384 219.527 108.02 10.425 62.507-34.575-13.16-15.365-33.45-75.738-16.996-33.476 91.017 58.173 25.227 3.84 55.375-47.195 15.357 3.293 45.506-34.575 31.806-4.94 26.319-37.869-2.198 4.387-32.898 15.918-32.346-9.332-14.805 34.029-26.319-64.212-123.923-25.244 7.133-35.13-27.964v-31.254l-76.283-29.609-35.123-43.32-51.04 6.033L610.887 961.77 588.39 859.783l-116.899-59.77zM-23.001 5.512v24.674l-85.445 31.253-102.252-20.14-92.202 12.916-24.697-20.74h-47.748l-19.758 44.414-34.575-23.674-79.03 23.674-11.526-23.674 118.546-94.762 75.737 11.489 41.162-32.873-65.859 9.87-59.273-52.638-42.808 11.514-14.818-37.833 93.849-29.609 9.878-60.862h-44.454l31.283-26.32-16.465-29.608 20.58-9.047 18.935 28.786 70.798-6.58-2.47-42.768 30.46-37.834h-28.813l-13.995-46.88 32.93-43.591-81.5 16.45-37.87-37.012 46.102-52.638-29.637-46.88-9.055 13.982 13.171 34.543-52.687 7.403 18.935-71.555-36.222 37.833-16.465-27.141 83.146-70.732-40.338 13.982-13.172-29.61 47.748-48.525-41.162-48.525 31.283-26.32 18.934 21.385 77.384-99.519 109.49 18.095-86.44 106.098 129.248 10.692 7.41 25.497-86.44 103.63 10.702 13.982-46.924 23.852 58.45 11.514 36.222 53.46 13.171 111.856 36.223 19.194 28.813 89.372h-18.111l28.813 60.863-24.697 23.851 21.404 17.272 23.05-18.917 55.98 26.32 6.586 51.815-81.5 84.714zm-798.536 1573.105l-38.416-10.968-35.129-146.946-76.284-.546 69.152-92.116-19.758-47.703 39.515-42.768-27.99-78.957 44.455 1.645 41.162-138.175 62.565-52.638-34.14-12.054 14.383-32.36-124.526-18.034 10.92-26.378-76.008 3.217 1.917-143.037h85.616l50.494-32.898 38.415 39.478 411.617 109.658 195.383 106.375 12.072-25.22 190.99 67.988-200.87 128.305-130.617 160.105 36.223 77.864-58.18 33.991-41.708 81.155-77.93 4.382-47.202 72.377-216.234-30.701z"/></g></svg>