<?xml version="1.0" encoding="UTF-8"?>
<svg width="644px" height="1017px" viewBox="0 0 644 1017" version="1.1" xmlns="http://www.w3.org/2000/svg" xmlns:xlink="http://www.w3.org/1999/xlink">
    <!-- Generator: Sketch 44.1 (41455) - http://www.bohemiancoding.com/sketch -->
    <title>landen</title>
    <desc>Created with Sketch.</desc>
    <defs></defs>
    <g id="Welcome" stroke="none" stroke-width="1" fill="none" fill-rule="evenodd" opacity="0.290591033">
        <g id="Tour-desktop" stroke="#E42420" stroke-width="1.2">
            <g id="kaart" transform="translate(-1101.000000, -1048.000000)">
                <g id="landen" transform="translate(0.000000, 0.559794)">
                    <path d="M739.650065,1892.69085 L824.443107,1594.13521 L757.68217,1521.76467 L735.533898,1432.93162 L592.291284,1342.46021 L613.695352,1278.30776 L725.655097,1278.30776 L742.119766,1319.43113 L839.261309,1319.43113 L839.261309,1202.64077 L886.468806,1255.51555 C886.468806,1255.51555 978.664363,1247.60012 969.332189,1248.69894 L969.332189,1212.51038 L1059.07122,1194.49505 L1084.58487,1105.58962 L1140.56474,1094.07508 L1333.20136,1289.8223 L1525.83798,1353.97476 L1471.50457,1495.43913 L1389.18123,1554.65678 L1351.31249,1669.80221 L1413.0089,1638.45633 L1430.51413,1742.94916 L1397.41357,1768.49829 L1440.2217,1888.57851 L1479.73691,1888.57851 L1371.0701,1987.27459 L1226.2798,1931.99163 L1115.86774,1952.73097 L1123.47441,2034.04337 L913.161326,1955.40234 L901.827048,1979.87239 L739.650065,1892.69085 Z" id="Stroke-2"></path>
                    <polygon id="Stroke-4" points="1343.08016 1272.82421 1160.86897 1085.30166 1206.97004 1066.66126 1243.19231 1094.07245 1307.40452 1071.04337 1380.03346 1109.42956 1368.32379 1144.51931 1394.66726 1144.51931 1417.71779 1190.57748"></polygon>
                    <polygon id="Stroke-6" points="1411.82015 1296.40204 1361.45144 1280.43302 1405.64919 1230.60466"></polygon>
                    <polygon id="Stroke-8" points="1453.43032 850.802408 1366.95129 868.719036 1373.53716 943.563563 1334.02196 968.237582 1343.90076 903.262664 1323.31992 878.588644 1293.68352 981.397059 1222.88545 1054.59665 1245.93598 1071.046 1308.50172 1049.66185 1388.35536 1088.73891 1402.62694 1063.22927 1385.88566 1018.40809 1449.97274 1014.75633 1465.33098 969.270601 1440.21907 940.688217 1468.80832 932.009542 1475.20978 876.535766"></polygon>
                    <polygon id="Stroke-10" points="1551.63284 1344.10515 1430.31458 1302.27775 1418.30855 1217.74785 1441.04296 1194.4161 1399.05806 1112.71548 1424.30827 1066.65731 1411.82147 1034.85744 1464.82453 1030.98197 1488.24387 963.579127 1472.32583 949.597183 1487.14403 943.839912 1497.84607 870.363971 1475.89537 842.9462 1541.75404 826.496854 1566.99767 855.013441 1582.36909 811.146324 1609.80581 811.146324 1588.95495 697.099715 1670.17846 713.549062 1735.85931 757.409599 1770.06631 802.375533 1878.73312 721.221037 1909.46277 732.189461 1890.80501 769.47684 1901.78365 781.5375 1920.44142 770.569076 1947.88472 799.085663 2015.93649 1125.87496 1824.94634 1209.22051 1882.02605 1306.33087 1950.07782 1370.4241 1874.34034 1441.70241 1895.17144 1506.21675 1821.65341 1487.76058 1653.16716 1504.76262 1571.93707 1482.82578 1494.59265 1491.37944"></polygon>
                    <polygon id="Stroke-14" points="1380.75791 1633.20241 1406.06081 1564.05594 1484.26798 1509.83231 1567.82288 1502.43011 1639.44419 1523.40631 1634.9197 1561.64775 1699.13191 1583.0319 1698.11768 1613.3645 1673.19676 1642.6575 1616.39365 1627.85966 1596.10918 1690.36718 1545.59558 1627.0372 1513.48948 1674.73372 1439.6619 1679.49745 1427.8732 1608.11387"></polygon>
                    <polygon id="Stroke-16" points="1897.11625 1447.73603 1925.82404 1534.37145 1820.55554 1505.72327 1658.79347 1525.73225 1655.69811 1548.79423 1716.82813 1570.00731 1716.82813 1595.36562 1754.15024 1595.36562 1754.15024 1570.00731 1837.02021 1570.00731 1861.17059 1601.26107 2020.32466 1625.38897 2052.70736 1591.94416 2090.02948 1592.49028 2159.72771 1541.4973 2159.72771 1465.28419 2195.94998 1465.28419 2195.94998 1425.25306 2173.99928 1390.16332 2173.99928 1356.71851 2106.49414 1356.71851 2035.14286 1331.49179 2035.14286 1360.55449 2015.93847 1360.55449 2015.93847 1385.77463 1964.21307 1384.81399"></polygon>
                    <polygon id="Stroke-18" points="1507.52136 1922.9162 1470.68002 1923.12017 1525.83666 1870.89678 1454.24828 1868.14645 1422.14218 1773.33242 1452.9838 1750.40203 1444.78439 1700.48155 1525.83666 1696.67189 1546.84558 1666.40509 1604.32044 1731.76163 1630.66391 1654.4497 1679.51129 1664.31931 1723.96589 1614.42515 1772.80669 1614.42515 1772.80669 1588.65232 1825.49362 1588.65232 1850.98093 1619.60999 1941.84614 1631.96674 1941.29952 1701.60669 1838.66536 1753.14578 1868.30176 1795.91408 1846.89769 1815.10718 1866.6553 1880.35187 1958.31081 1937.92458 2014.83731 2055.81376 2105.9462 2115.0314 2180.58383 2106.26061 2180.58383 2126.54594 2155.3402 2147.9301 2374.86692 2255.94966 2385.29235 2318.45718 2350.71654 2305.2977 2335.35172 2271.84631 2259.61424 2254.85085 2226.13828 2345.86837 2284.31124 2371.09509 2288.1508 2426.47017 2240.95648 2441.82728 2244.24941 2487.33275 2209.67361 2519.13921 2204.73421 2545.45816 2166.86547 2543.26053 2171.25166 2510.36183 2187.1697 2478.01584 2177.83753 2463.21143 2211.8667 2436.89247 2147.6545 2312.96968 2122.41087 2320.10211 2087.28185 2292.13823 2087.28185 2260.88447 2010.99775 2231.27564 1975.87532 2187.95464 1924.83485 2193.98827 1711.88741 2009.20947 1689.39009 1907.22352 1572.49095 1847.45317"></polygon>
                    <polygon id="Stroke-30" points="1077.999 1052.95172 1077.999 1077.62574 992.553957 1108.87949 890.301781 1088.73891 798.099638 1101.65494 773.402635 1080.91561 725.655097 1080.91561 705.897495 1125.32884 671.321692 1101.65494 592.291284 1125.32884 580.766016 1101.65494 699.311628 1006.89355 775.049102 1018.38177 816.210773 985.509396 750.3521 995.379004 691.079294 942.741095 648.271156 954.255638 633.452954 916.422141 727.301564 886.813318 737.180365 825.950736 692.72576 825.950736 724.00863 799.631782 707.543962 770.022958 728.124797 760.975817 747.059166 789.762174 817.85724 783.182435 815.38754 740.414134 845.847176 702.580638 817.034006 702.580638 803.039038 655.7 835.968375 612.109232 754.468267 628.558579 716.59953 591.547549 762.700601 538.909641 733.064198 492.029004 724.00863 506.010948 737.180365 540.554576 684.493426 547.956781 703.427795 476.402125 667.205525 514.235621 650.740856 487.0942 733.887431 416.36201 693.548994 430.343955 680.377259 400.735131 728.124797 352.209559 686.963127 303.683987 718.245996 277.365033 737.180365 298.749183 814.564306 199.230637 924.054351 217.324919 837.614842 323.423203 966.862488 334.115278 974.271589 359.611765 887.83208 463.242647 898.534115 477.224592 851.60981 501.076144 910.059383 512.590687 946.281653 566.051062 959.453388 677.906618 995.675658 697.099715 1024.48883 786.472304 1006.37769 786.472304 1035.19086 847.334886 1010.49386 871.186438 1031.89793 888.458252 1054.94846 869.541504 1110.92834 895.860458 1117.5142 947.675899 1036.0141 1032.39003"></polygon>
                    <polygon id="Stroke-1-Copy" points="279.462585 2626.05733 241.047221 2615.0889 205.918205 2468.1436 129.634103 2467.59748 198.78571 2375.48114 179.028108 2327.77804 218.543312 2285.00974 190.553376 2206.05287 235.007981 2207.69781 276.169652 2069.5233 338.735391 2016.88539 304.594255 2004.83131 318.977789 1972.47215 194.45221 1954.43709 205.371578 1928.05892 129.364083 1931.27641 131.28057 1788.23947 216.896846 1788.23947 267.39069 1755.34078 305.806055 1794.81921 717.422763 1904.47714 912.805689 2010.85177 924.877584 1985.63163 1115.86774 2053.62007 914.998783 2181.92497 784.381276 2342.02975 820.603547 2419.89438 762.423994 2453.88531 720.715697 2535.0398 642.785129 2539.42191 595.584217 2611.79903 379.350435 2581.09797"></polygon>
                </g>
            </g>
        </g>
    </g>
</svg>