<?xml version="1.0" encoding="UTF-8"?>
<svg width="522px" height="387px" viewBox="0 0 522 387" version="1.1" xmlns="http://www.w3.org/2000/svg" xmlns:xlink="http://www.w3.org/1999/xlink">
    <!-- Generator: Sketch 44.1 (41455) - http://www.bohemiancoding.com/sketch -->
    <title>tour3</title>
    <desc>Created with Sketch.</desc>
    <defs></defs>
    <g id="Welcome" stroke="none" stroke-width="1" fill="none" fill-rule="evenodd">
        <g id="tour-lines" transform="translate(-127.000000, -766.000000)">
            <g id="tour3" transform="translate(128.000000, 766.000000)">
                <polyline id="Path-74" stroke="#FF0000" stroke-width="2" points="259.875 386.810997 259.875 250.202172 331.159795 250.202172 331.159795 236.793412 419.258323 236.793412 419.258323 152.028048 403.725894 152.028048 403.725894 141.206768 484.028673 141.206768 464.820312 99.6703715 437.767578 88.4262309 435.830078 80.4613872 383.613358 80.4613872 383.613358 20 283.109383 20 262.644531 54.6684184 262.644531 77.9566266 230.736328 89.2816997 212.765625 102.646934 201.261719 123.898887 198 142.465293 259.793246 142.465293 259.793246 243.764758"></polyline>
                <g id="inhoud">
                    <g id="plattegrond">
                        <polygon id="Path-12" fill-opacity="0.29834692" fill="#FFFFFF" points="227.874534 371.320743 227.874534 337.614552 201.984956 337.614552 201.984956 265.595292 132.523212 265.595292 132.523212 269.406254 96.2952807 269.406254 96.2952807 231.946783 86.6065598 231.946783 86.6065598 211.514193 26.6930548 191.663224 0.713504087 136.229278 26.9747889 75.2671779 86.4365191 58.3221109 86.4748616 36.9939953 96.1605129 37.0831054 96.2788745 0.758684626 132.513379 1.04183805 132.513379 3.13967183 246.012208 3.17798083 246.132237 7.67595631 273.998906 7.62265684 274.264803 3.04972898 387.547747 2.98726866 387.872825 0.694558702 423.743909 0.695391507 423.933121 37.0572885 433.585431 37.3029657 433.686289 58.1313987 493.313892 75.5869748 519.497658 136.039399 493.261379 191.764826 434.817393 211.623875 434.298102 231.925143 424.740814 232.101698 424.575775 269.253093 388.462132 269.461294 388.280422 265.625398 318.922157 265.756148 318.625419 337.125802 292.744225 337.610494 292.625864 371.326572"></polygon>
                        <g id="Group-4" transform="translate(86.142834, 143.268972)" stroke="#FFFFFF" stroke-width="1.2">
                            <path d="M141.41029,228.318268 L141.41029,148.022439" id="Path-6"></path>
                            <path d="M141.41029,140.645639 L141.41029,108.634292" id="Path-39"></path>
                            <path d="M141.41029,103.122813 L141.41029,71.1114659" id="Path-39-Copy"></path>
                            <path d="M141.41029,60.4832378 L141.41029,28.4718909" id="Path-39-Copy-2"></path>
                            <path d="M206.279147,228.318268 L206.279147,148.022439" id="Path-6-Copy"></path>
                            <path d="M206.279147,140.645639 L206.279147,108.634292" id="Path-39-Copy-5"></path>
                            <path d="M206.279147,103.122813 L206.279147,71.1114659" id="Path-39-Copy-4"></path>
                            <path d="M206.279147,60.4832378 L206.279147,28.4718909" id="Path-39-Copy-3"></path>
                            <polyline id="Path-7" points="141.648763 22.3091589 141.648763 8.25983815 100.699811 8.25983815"></polyline>
                            <polyline id="Path-8" points="141.77171 194.180791 115.750412 194.180791 115.750412 122.373634"></polyline>
                            <path d="M141.549156,183.861847 L116.170759,183.861847" id="Path-40"></path>
                            <path d="M141.588332,122.460859 L46.1029403,122.460859" id="Path-9"></path>
                            <path d="M96.1949689,96.1614025 L96.1949689,122.805707 L96.1949689,96.1614025 Z M17.8262139,40.8265603 L66.8429262,40.8265603 L17.8262139,40.8265603 Z" id="Path-41"></path>
                            <path d="M75.9867994,39.7400839 L141.855048,39.7400839" id="Path-47"></path>
                            <path d="M18.3246666,87.4964079 L66.6715248,87.4964079" id="Path-49"></path>
                            <path d="M95.3192594,35.6198684 L95.3192594,12.5932386" id="Path-51"></path>
                            <path d="M44.960541,34.4589394 L44.960541,0.338194202" id="Path-52"></path>
                            <path d="M44.8885237,3.0700494 L31.9905977,3.0700494" id="Path-54"></path>
                            <path d="M44.8935249,7.3340069 L89.6789054,7.3340069" id="Path-55"></path>
                            <polyline id="Path-46" points="46.3322026 96.1713962 46.3322026 126.284769 9.95034045 126.284769 9.95034045 88.8774025 0.0308105211 88.8774025 0.0308105211 41.100393 10.1115904 41.100393 10.1115904 0.671941703"></polyline>
                            <path d="M71.4202066,46.9401759 L71.4202066,84.527077" id="Path-48"></path>
                            <path d="M75.9409551,88.3491994 L141.436201,88.3491994" id="Path-50"></path>
                            <path d="M9.85013846,3.0700494 L24.4392869,3.0700494" id="Path-53"></path>
                        </g>
                        <g id="Group" transform="translate(363.515101, 240.768972) scale(-1, 1) translate(-363.515101, -240.768972) translate(292.515101, 143.268972)" stroke-width="1.2" stroke="#FFFFFF">
                            <polyline id="Path-7-Copy" points="141.648763 22.3091589 141.648763 8.25983815 100.699811 8.25983815"></polyline>
                            <polyline id="Path-8-Copy" points="141.77171 194.180791 115.750412 194.180791 115.750412 122.373634"></polyline>
                            <path d="M141.549156,183.861847 L116.170759,183.861847" id="Path-40-Copy"></path>
                            <path d="M141.588332,122.460859 L46.1029403,122.460859" id="Path-9-Copy"></path>
                            <path d="M96.1949689,96.1614025 L96.1949689,122.805707 L96.1949689,96.1614025 Z M17.8262139,40.8265603 L66.8429262,40.8265603 L17.8262139,40.8265603 Z" id="Path-41-Copy"></path>
                            <path d="M75.9867994,39.7400839 L141.855048,39.7400839" id="Path-47-Copy"></path>
                            <path d="M18.3246666,87.4964079 L66.6715248,87.4964079" id="Path-49-Copy"></path>
                            <path d="M95.3192594,35.6198684 L95.3192594,12.5932386" id="Path-51-Copy"></path>
                            <path d="M44.960541,34.4589394 L44.960541,0.338194202" id="Path-52-Copy"></path>
                            <path d="M44.8885237,3.0700494 L31.9905977,3.0700494" id="Path-54-Copy"></path>
                            <path d="M44.8935249,7.3340069 L89.6789054,7.3340069" id="Path-55-Copy"></path>
                            <polyline id="Path-46-Copy" points="46.3322026 96.1713962 46.3322026 126.284769 9.95034045 126.284769 9.95034045 88.8774025 0.0308105211 88.8774025 0.0308105211 41.100393 10.1115904 41.100393 10.1115904 0.671941703"></polyline>
                            <path d="M71.4202066,46.9401759 L71.4202066,84.527077" id="Path-48-Copy"></path>
                            <path d="M75.9409551,88.3491994 L141.436201,88.3491994" id="Path-50-Copy"></path>
                            <path d="M10.7036761,3.0700494 L25.2928245,3.0700494" id="Path-53-Copy"></path>
                        </g>
                        <g id="Group-3" transform="translate(227.894539, 157.766428)" stroke="#FFFFFF" stroke-width="1.2">
                            <path d="M0.0066682625,0.5116749 L28.3015639,0.5116749" id="Path-10"></path>
                            <path d="M36.708785,0.5116749 L65.0036806,0.5116749" id="Path-10-Copy"></path>
                            <path d="M0.0066682625,98.5826974 L28.3015639,98.5826974" id="Path-10-Copy-3"></path>
                            <path d="M36.708785,98.5826974 L65.0036806,98.5826974" id="Path-10-Copy-2"></path>
                            <path d="M0.0066682625,161.689268 L28.3015639,161.689268" id="Path-10-Copy-5"></path>
                            <path d="M36.708785,161.689268 L65.0036806,161.689268" id="Path-10-Copy-4"></path>
                        </g>
                        <g id="Group-2" stroke-width="1.2" stroke="#FFFFFF">
                            <polyline id="Path-11" points="86.599058 211.643862 26.6280392 191.639906 0.236723319 136.170149 26.8864344 75.645271 86.4273502 58.2046855"></polyline>
                            <polyline id="Path-56" points="77.5535599 184.061387 43.133656 171.029667 26.573026 135.906983 47.4913655 93.5588894 76.7667049 84.1348771"></polyline>
                            <path d="M85.8080353,83.2324504 L125.262576,83.2324504" id="Path-58"></path>
                            <polyline id="Path-59" points="86.320658 76.6562953 86.320658 37.1225041 126.338656 37.1225041"></polyline>
                            <polyline id="Path-60" points="132.354175 31.4175384 132.354175 0.77768419 96.0211075 0.77768419 96.0211075 37.2605617"></polyline>
                            <polyline id="Path-62" points="138.362279 37.008153 241.919838 37.008153 241.919838 46.3846955"></polyline>
                            <path d="M131.103375,43.0151697 L131.103375,76.0560926" id="Path-64"></path>
                            <polyline id="Path-65" points="179.790527 37.1888715 179.790527 51.7807024 148.088943 83.4545748 132.043858 83.4545748 132.043858 135.868142"></polyline>
                            <polyline id="Path-66" points="250.390756 64.2683329 247.926 44.859831 211.14303 57.0337628 182.267786 82.1494718 164.470194 116.04377 160.315866 134.295507 132.327164 134.295507"></polyline>
                            <polyline id="Path-70" points="189.460341 138.332109 191.829241 123.199224 204.398083 99.3818563 224.994678 81.9187851 252.364562 72.4564638"></polyline>
                            <path d="M95.2547961,133.043802 L95.2547961,83.1770159" id="Path-57"></path>
                            <polyline id="Path-61" points="132.766773 3.09803162 245.918131 3.09803162 245.918131 7.90918304 260.595202 7.90918304"></polyline>
                            <polygon id="Path-63" points="260.606534 21.8902584 243.926026 21.8902584 243.926026 30.8728702"></polygon>
                            <path d="M221.522181,74.7133631 L211.583135,57.4035279" id="Path-67"></path>
                            <path d="M198.577523,94.6781782 L182.487839,82.4809279" id="Path-68"></path>
                            <path d="M185.130138,121.838422 L164.835281,116.565105" id="Path-69"></path>
                        </g>
                        <g id="Group-2-Copy" transform="translate(389.304398, 106.000000) scale(-1, 1) translate(-389.304398, -106.000000) translate(258.804398, 0.000000)" stroke-width="1.2" stroke="#FFFFFF">
                            <polyline id="Path-11" points="85.1703827 211.676342 26.6280392 191.639906 0.236723319 136.170149 26.8864344 75.645271 86.4273502 58.2046855"></polyline>
                            <polyline id="Path-56" points="77.5535599 184.061387 43.133656 171.029667 26.573026 135.906983 47.4913655 93.5588894 76.7667049 84.1348771"></polyline>
                            <path d="M85.8080353,83.2324504 L125.262576,83.2324504" id="Path-58"></path>
                            <polyline id="Path-59" points="86.320658 76.6562953 86.320658 37.1225041 126.338656 37.1225041"></polyline>
                            <polyline id="Path-60" points="132.354175 31.4175384 132.354175 0.77768419 96.0211075 0.77768419 96.0211075 37.2605617"></polyline>
                            <polyline id="Path-62" points="138.362279 37.008153 241.919838 37.008153 241.919838 46.3846955"></polyline>
                            <path d="M131.103375,43.0151697 L131.103375,76.0560926" id="Path-64"></path>
                            <polyline id="Path-65" points="179.790527 37.1888715 179.790527 51.7807024 148.088943 83.4545748 132.043858 83.4545748 132.043858 135.868142"></polyline>
                            <polyline id="Path-66" points="250.390756 64.2683329 247.926 44.859831 211.14303 57.0337628 182.267786 82.1494718 164.470194 116.04377 160.315866 134.295507 132.327164 134.295507"></polyline>
                            <polyline id="Path-70" points="189.460341 138.332109 191.829241 123.199224 204.398083 99.3818563 224.994678 81.9187851 252.364562 72.4564638"></polyline>
                            <path d="M95.2547961,133.043802 L95.2547961,83.1770159" id="Path-57"></path>
                            <polyline id="Path-61" points="132.766773 3.09803162 245.918131 3.09803162 245.918131 7.90918304 260.595202 7.90918304"></polyline>
                            <polygon id="Path-63" points="260.606534 21.8902584 243.926026 21.8902584 243.926026 30.8728702"></polygon>
                            <path d="M221.522181,74.7133631 L211.583135,57.4035279" id="Path-67"></path>
                            <path d="M198.577523,94.6781782 L182.487839,82.4809279" id="Path-68"></path>
                            <path d="M185.130138,121.838422 L164.835281,116.565105" id="Path-69"></path>
                        </g>
                    </g>
                </g>
            </g>
        </g>
    </g>
</svg>