<?xml version="1.0" encoding="UTF-8"?>
<svg width="587px" height="347px" viewBox="0 0 587 347" version="1.1" xmlns="http://www.w3.org/2000/svg" xmlns:xlink="http://www.w3.org/1999/xlink">
    <!-- Generator: Sketch 44.1 (41455) - http://www.bohemiancoding.com/sketch -->
    <title>kaart</title>
    <desc>Created with Sketch.</desc>
    <defs></defs>
    <g id="Welcome" stroke="none" stroke-width="1" fill="none" fill-rule="evenodd" stroke-linecap="round" stroke-linejoin="round">
        <g id="Home-desktop-Copy" transform="translate(-853.000000, 0.000000)" stroke="#FF0000" stroke-width="1.2">
            <g id="kaart" transform="translate(1069.875000, -46.257812) rotate(61.000000) translate(-1069.875000, 46.257812) translate(539.375000, -490.757812)">
                <path d="M340.58144,550.997239 L379.581226,413.509119 L348.875142,380.181696 L338.688246,339.273109 L272.805112,297.610042 L282.649719,268.067141 L334.144582,268.067141 L341.717356,287.004898 L386.396722,287.004898 L386.396722,233.221667 L408.10938,257.571078 C408.10938,257.571078 450.513885,253.925938 446.221637,254.431955 L446.221637,237.766728 L487.496284,229.470475 L499.231054,188.528559 L524.978486,183.225986 L613.579942,273.369713 L702.181397,302.912615 L677.191243,368.058501 L639.327373,395.328872 L621.909993,448.354593 L650.286692,433.919477 L658.338065,482.039561 L643.11376,493.805211 L662.802972,549.103463 L680.97763,549.103463 L630.997322,594.554082 L564.402347,569.095675 L513.619325,578.646365 L517.117947,616.091615 L420.386361,579.876562 L415.173263,591.145285 L340.58144,550.997239 Z" id="Stroke-2"></path>
                <polygon id="Stroke-10" points="714.045511 298.367553 658.246283 279.105581 652.724216 240.178641 663.180702 229.434115 643.870129 191.810093 655.483735 170.599805 649.740543 155.955615 674.118817 154.170921 684.890331 123.131179 677.568973 116.692341 684.38447 114.041055 689.306773 80.204585 679.21075 67.5784033 709.501846 60.0033002 721.112423 73.1354989 728.182365 52.9342141 740.801636 52.9342141 731.211475 0.414509639 768.569483 7.98961268 798.778793 28.1878674 814.511989 48.8951691 864.492297 11.5226407 878.626122 16.5737195 870.044655 33.744963 875.09418 39.2990286 883.675648 34.2479499 896.297948 47.3801485 927.597737 197.870176 839.753559 236.251708 866.006852 280.972086 897.306641 310.487718 862.471881 343.312154 872.052954 373.021708 838.239004 364.522443 760.745293 372.352069 723.384256 362.249912 687.810393 366.188965"></polygon>
                <polygon id="Stroke-14" points="635.453142 431.499989 647.090981 399.657286 683.061657 374.686716 721.491971 371.277919 754.433538 380.937691 752.352539 398.54829 781.886358 408.395924 781.419875 422.364414 769.957724 435.854158 743.831654 429.039595 734.501997 457.824987 711.268726 428.66084 696.501817 450.625609 662.545498 452.819359 657.123392 419.946442"></polygon>
                <polygon id="Stroke-16" points="872.94745 346.090702 886.151339 385.987255 837.734051 372.794455 763.333062 382.00881 761.90938 392.629105 790.025575 402.397958 790.025575 414.075737 807.191539 414.075737 807.191539 402.397958 845.306825 402.397958 856.41457 416.790654 929.616033 427.901815 944.510165 412.500115 961.676129 412.751609 993.733196 389.268789 993.733196 354.171822 1010.3933 354.171822 1010.3933 335.737051 1000.29728 319.577841 1000.29728 304.176142 969.248903 304.176142 936.431529 292.558964 936.431529 305.942656 927.598646 305.942656 927.598646 317.556804 903.808019 317.114418"></polygon>
                <polygon id="Stroke-22" points="907.908525 307.457676 874.336903 275.642244 853.635968 240.290753 934.413234 204.942292 972.52852 214.535402 986.665374 233.221667 1000.29637 220.092498 1060.87856 251.907931 1022.006 295.589005 971.583437 296.095022 927.597737 279.617658 927.597737 296.843442 918.195381 296.788901 918.195381 307.457676"></polygon>
                <polygon id="Stroke-24" points="903.664742 432.695643 933.525705 436.655907 948.989309 421.393589 966.597523 421.46328 989.9459 403.913281 996.004119 414.551756 968.996578 436.486225 972.025687 449.3639 957.888833 457.823775 959.403388 473.604229 940.220037 473.604229 931.384124 465.020123 900.335751 477.140288 903.113444 462.999085"></polygon>
                <polygon id="Stroke-1" points="128.922407 888.720482 111.25361 883.669404 95.0963399 815.999493 60.0101635 815.748 91.8158142 773.327423 82.7284855 751.359624 100.903143 731.664356 88.0294272 695.303861 108.475917 696.061371 127.407852 632.430506 156.184393 608.190176 140.481489 602.639141 147.097064 587.737398 89.8226601 579.432055 94.8449238 567.28462 59.88597 568.76631 60.7674409 502.896244 100.145866 502.896244 123.370049 487.746038 141.038845 505.926285 330.358195 556.424952 420.222789 605.411628 425.775147 593.79748 513.619325 625.106896 421.231482 684.1927 361.155152 757.922693 377.815255 793.780201 351.056101 809.433394 331.872749 846.805922 296.029296 848.82393 274.319667 882.154383 174.864912 868.016211"></polygon>
            </g>
        </g>
    </g>
</svg>