<?xml version="1.0" encoding="UTF-8"?>
<svg width="396px" height="291px" viewBox="0 0 396 291" version="1.1" xmlns="http://www.w3.org/2000/svg" xmlns:xlink="http://www.w3.org/1999/xlink">
    <!-- Generator: Sketch 44.1 (41455) - http://www.bohemiancoding.com/sketch -->
    <title>colosseum</title>
    <desc>Created with Sketch.</desc>
    <defs></defs>
    <g id="Welcome" stroke="none" stroke-width="1" fill="none" fill-rule="evenodd" opacity="0.495187953">
        <g id="Home-desktop-Copy" transform="translate(-1044.000000, -733.000000)" stroke="#FF0000" stroke-width="1.2">
            <g id="colosseum" transform="translate(1292.500000, 895.000000) scale(-1, 1) translate(-1292.500000, -895.000000) translate(1045.000000, 734.000000)">
                <polygon id="Path-6" points="0.566311438 304.017613 0.566311438 253.316588 97.6777723 234.848799 215.368866 229.982203 298.500868 229.982203 298.500868 301.937161"></polygon>
                <polygon id="Path-7" points="0.67347258 247.383448 0.67347258 199.767396 67.7586943 172.126309 164.771598 160.2334 258.255224 158.3371 258.255224 222.907084 215.411104 223.037964 96.1477928 227.762298"></polygon>
                <polygon id="Path-8" points="0.578826608 194.068198 0.578826608 146.137256 50.6316842 116.70762 135.780207 91.7477538 203.707856 81.6721971 216.36695 131.423092 251.236356 131.423092 251.236356 152.687285 163.362468 154.128269 66.0409872 166.741475"></polygon>
                <polygon id="Path-9" points="0.446244027 139.585153 0.446244027 91.1924883 40.8729805 61.6836682 91.0760202 39.8785689 160.796467 20.1182839 182.723045 67.8618839 200.633818 67.8618839 202.210729 75.6550027 134.278387 85.8759476 49.0391289 111.225079"></polygon>
                <polygon id="Path-10" points="0.167390397 63.4986754 0.167390397 83.5520818 36.8665617 56.5540452 88.8268095 34.0923541 158.147553 15.0644815 151.100339 0.57217281 82.4022252 19.8110927 30.6656862 41.0049364"></polygon>
                <polygon id="Path-11" points="393.358048 297.998796 393.358048 229.982203 305.77343 229.982203 305.77343 300.806567"></polygon>
                <polygon id="Path-12" points="350.745459 222.717196 350.745459 167.440811 265.321548 167.440811 265.321548 223.061167"></polygon>
                <polygon id="Path-13" points="343.117462 160.669564 265.67813 160.669564 265.67813 152.410575 258.441592 152.410575 258.441592 144.243926 281.636941 144.243926 281.636941 136.940026 300.687202 136.940026 300.687202 144.135342 343.117462 144.135342"></polygon>
                <polygon id="Path-14" points="425.446161 143.857689 477.231588 159.289158 494.680863 172.955647 494.680863 298.313286 399.893936 298.313286 399.893936 222.604535 357.981573 222.604535 357.981573 160.481967 349.078594 160.481967 349.078594 143.857689"></polygon>
                <path d="M116.17623,248.513735 L116.17623,297.154978 L133.604914,297.154978 L133.604914,246.905086 L116.17623,248.513735 Z" id="Rectangle-2-Copy-4" opacity="0.704483696"></path>
                <path d="M154.386408,245.500227 L154.386408,298.755812 L178.817476,298.755812 L178.817476,244.364008 L154.386408,245.500227 Z" id="Rectangle-2-Copy-5" opacity="0.704483696"></path>
                <path d="M202.44466,243.642047 L202.44466,295.554145 L231.681553,295.554145 L231.681553,242.352856 L202.44466,243.642047 Z" id="Rectangle-2-Copy-6" opacity="0.704483696"></path>
                <path d="M281.341748,295.554145 L281.941748,295.554145 L281.341748,296.154145 L281.341748,295.554145 Z M252.104854,242.325816 L252.104854,295.554145 L281.341748,295.554145 L281.341748,242.325816 L252.104854,242.325816 Z" id="Rectangle-2-Copy-7" opacity="0.704483696"></path>
                <path d="M83.9009709,183.473413 L83.9009709,219.084044 L101.924272,216.951414 L101.924272,181.34628 L83.9009709,183.473413 Z" id="Rectangle-3-Copy-4" opacity="0.704483696"></path>
                <path d="M112.735922,179.825669 L112.735922,216.340851 L137.16699,215.125284 L137.16699,177.204544 L112.735922,179.825669 Z" id="Rectangle-3-Copy-5" opacity="0.704483696"></path>
                <path d="M154.386408,175.374059 L154.386408,214.441838 L180.419417,213.390882 L180.419417,172.194664 L154.386408,175.374059 Z" id="Rectangle-3-Copy-6" opacity="0.704483696"></path>
                <path d="M200.842718,170.711981 L200.842718,212.735654 L230.079612,211.76557 L230.079612,169.649168 L200.842718,170.711981 Z" id="Rectangle-3-Copy-7" opacity="0.704483696"></path>
                <path d="M155.98835,98.17799 L155.98835,145.022779 L185.225243,141.934202 L185.225243,94.3836232 L155.98835,98.17799 Z" id="Rectangle-3-Copy-8" opacity="0.704483696"></path>
                <path d="M115.939806,108.813218 L115.939806,150.934704 L140.370874,147.372567 L140.370874,101.873346 L115.939806,108.813218 Z" id="Rectangle-3-Copy-9" opacity="0.704483696"></path>
                <path d="M83.6910613,116.877131 L83.6910613,155.154301 L101.714362,152.665866 L101.714362,111.560213 L83.6910613,116.877131 Z" id="Rectangle-3-Copy-10" opacity="0.704483696"></path>
                <path d="M95.1145631,45.4233301 L95.1145631,60.2316623 L101.924272,60.2316623 L101.924272,45.4233301 L95.1145631,45.4233301 Z" id="Rectangle-3-Copy-18" opacity="0.704483696"></path>
                <path d="M127.153398,61.4316623 L127.153398,76.2399944 L133.963107,76.2399944 L133.963107,61.4316623 L127.153398,61.4316623 Z" id="Rectangle-3-Copy-19" opacity="0.704483696"></path>
                <rect id="Rectangle-4" opacity="0.704483696" x="476.376699" y="173.489988" width="6.80970874" height="18.0099986"></rect>
                <rect id="Rectangle-4-Copy" opacity="0.704483696" x="455.551456" y="167.086655" width="6.80970874" height="18.0099986"></rect>
                <rect id="Rectangle-4-Copy-2" opacity="0.704483696" x="434.726214" y="160.683322" width="6.80970874" height="18.0099986"></rect>
                <rect id="Rectangle-4-Copy-3" opacity="0.704483696" x="413.900971" y="155.880822" width="6.80970874" height="18.0099986"></rect>
                <rect id="Rectangle-4-Copy-4" opacity="0.704483696" x="394.67767" y="155.880822" width="6.80970874" height="18.0099986"></rect>
                <rect id="Rectangle-4-Copy-5" opacity="0.704483696" x="375.454369" y="155.880822" width="6.80970874" height="18.0099986"></rect>
                <polygon id="Path-15" opacity="0.704483696" points="485.258806 243.078082 485.258806 211.088095 481.357984 208.735207 481.357984 241.662681"></polygon>
                <polygon id="Path-16" opacity="0.704483696" points="471.84109 205.890784 465.732513 203.054542 465.732513 237.83212 471.84109 239.113545"></polygon>
                <polygon id="Path-18" opacity="0.704483696" points="453.673234 237.228162 453.673234 200.200976 442.192521 199.470229 442.192521 237.228162"></polygon>
                <rect id="Rectangle-5" opacity="0.704483696" x="416.894945" y="198.42135" width="11.615534" height="38.8208304"></rect>
                <path d="M479.134026,258.437128 L479.123683,291.097724 L485.933202,291.097724 L485.933202,259.518961 L479.134026,258.437128 Z" id="Rectangle-7" opacity="0.704483696"></path>
                <path d="M450.934522,255.184411 L450.934522,290.751646 L465.0922,290.751646 L465.0922,256.360939 L450.934522,255.184411 Z" id="Rectangle-9" opacity="0.704483696"></path>
                <path d="M416.8154,251.963401 L416.8154,290.751646 L434.838701,290.751646 L434.838701,252.917039 L416.8154,251.963401 Z" id="Rectangle-11" opacity="0.704483696"></path>
                <rect id="Rectangle-12" opacity="0.704483696" x="316.826636" y="242.017135" width="27.6349515" height="53.2283294"></rect>
                <rect id="Rectangle-12-Copy" opacity="0.704483696" x="353.695601" y="242.017135" width="27.6349515" height="53.2283294"></rect>
                <rect id="Rectangle-12-Copy-3" opacity="0.704483696" x="276.648028" y="177.230051" width="27.6349515" height="34.9637447"></rect>
                <rect id="Rectangle-12-Copy-2" opacity="0.704483696" x="313.516994" y="177.230051" width="27.6349515" height="34.9637447"></rect>
                <path d="M415.190259,32.6008019 C402.371658,261.911406 229.920249,360.088867 9.17855348,307.569709" id="stappen" stroke-dasharray="20" transform="translate(212.184406, 177.001690) scale(1, -1) translate(-212.184406, -177.001690) "></path>
            </g>
        </g>
    </g>
</svg>