<?xml version="1.0" encoding="UTF-8"?>
<svg width="483px" height="347px" viewBox="0 0 483 347" version="1.1" xmlns="http://www.w3.org/2000/svg" xmlns:xlink="http://www.w3.org/1999/xlink">
    <!-- Generator: Sketch 44.1 (41455) - http://www.bohemiancoding.com/sketch -->
    <title>Group 5</title>
    <desc>Created with Sketch.</desc>
    <defs></defs>
    <g id="Welcome" stroke="none" stroke-width="1" fill="none" fill-rule="evenodd">
        <g id="Home-desktop-Copy" transform="translate(-957.000000, -677.000000)">
            <g id="Group-5" transform="translate(918.000000, 677.000000)">
                <g id="colosseum" opacity="0.495187953" transform="translate(331.000000, 179.000000) scale(-1, 1) translate(-331.000000, -179.000000) translate(40.000000, 0.000000)" stroke="#FF0000" stroke-width="1.2">
                    <polygon id="Path-6" points="0.665844964 357.834396 0.665844964 298.158345 114.845381 276.421412 253.221575 270.693339 350.964657 270.693339 350.964657 355.385665"></polygon>
                    <polygon id="Path-7" points="0.791840488 291.174928 0.791840488 235.129948 79.6677981 202.595873 193.731455 188.597697 303.645536 186.365718 303.645536 262.365791 253.271238 262.51984 113.046496 268.080469"></polygon>
                    <polygon id="Path-8" points="0.680559769 228.421885 0.680559769 172.006274 59.5305863 137.367044 159.644607 107.988816 239.511055 96.1296978 254.395081 154.687428 295.393049 154.687428 295.393049 179.715779 192.07466 181.411845 77.648191 196.257823"></polygon>
                    <polygon id="Path-9" points="0.524674795 164.294326 0.524674795 107.335258 48.0567165 72.6028269 107.083321 46.9378187 189.057665 23.679595 214.838004 79.8747019 235.896731 79.8747019 237.750796 89.0473479 157.87883 101.07759 57.6581273 130.913991"></polygon>
                    <polygon id="Path-10" points="0.196810528 74.7391242 0.196810528 98.3423571 43.3461393 66.565165 104.438794 40.127336 185.943184 17.7311755 177.657369 0.673458059 96.8850406 23.3180253 36.0554128 48.2635742"></polygon>
                    <polygon id="Path-11" points="462.493704 350.750136 462.493704 270.693339 359.515427 270.693339 359.515427 354.054934"></polygon>
                    <polygon id="Path-12" points="412.39163 262.14229 412.39163 197.080955 311.95382 197.080955 311.95382 262.54715"></polygon>
                    <polygon id="Path-13" points="403.422956 189.111071 312.373074 189.111071 312.373074 179.390087 303.86466 179.390087 303.86466 169.777788 331.136767 169.777788 331.136767 161.180962 353.535256 161.180962 353.535256 169.649983 403.422956 169.649983"></polygon>
                    <polygon id="Path-14" points="500.221547 169.323181 561.108654 187.486308 581.624772 203.572019 581.624772 351.120297 470.178325 351.120297 470.178325 262.009686 420.899547 262.009686 420.899547 188.890265 410.431802 188.890265 410.431802 169.323181"></polygon>
                    <path d="M98.2949448,297.248134 L98.2949448,349.863158 L115.151851,349.863158 L115.151851,294.210265 L98.2949448,297.248134 Z" id="Rectangle-2-Copy-3" opacity="0.704483696"></path>
                    <path d="M136.489628,292.408383 L136.489628,349.863158 L157.192444,349.863158 L157.192444,290.495486 L136.489628,292.408383 Z" id="Rectangle-2-Copy-4" opacity="0.704483696"></path>
                    <path d="M210.351456,351.747368 L210.951456,351.747368 L210.351456,352.347368 L210.351456,351.747368 Z M181.415534,288.856926 L181.415534,351.747368 L210.351456,351.747368 L210.351456,287.509757 L181.415534,288.856926 Z" id="Rectangle-2-Copy-5" opacity="0.704483696"></path>
                    <path d="M237.920388,286.669571 L237.920388,347.978947 L272.506796,347.978947 L272.506796,285.142859 L237.920388,286.669571 Z" id="Rectangle-2-Copy-6" opacity="0.704483696"></path>
                    <path d="M296.308738,285.115789 L296.308738,347.978947 L330.895146,347.978947 L330.895146,285.115789 L296.308738,285.115789 Z" id="Rectangle-2-Copy-7" opacity="0.704483696"></path>
                    <path d="M98.5417476,215.857146 L98.5417476,257.985437 L119.943689,255.450309 L119.943689,213.328552 L98.5417476,215.857146 Z" id="Rectangle-3-Copy-4" opacity="0.704483696"></path>
                    <path d="M132.44466,211.562676 L132.44466,254.748807 L161.380583,253.307556 L161.380583,208.454911 L132.44466,211.562676 Z" id="Rectangle-3-Copy-5" opacity="0.704483696"></path>
                    <path d="M181.415534,206.324437 L181.415534,252.512597 L212.234951,251.267079 L212.234951,202.556445 L181.415534,206.324437 Z" id="Rectangle-3-Copy-6" opacity="0.704483696"></path>
                    <path d="M236.036893,200.82874 L236.036893,250.503601 L270.623301,249.354788 L270.623301,199.570114 L236.036893,200.82874 Z" id="Rectangle-3-Copy-7" opacity="0.704483696"></path>
                    <path d="M183.299029,115.463933 L183.299029,170.812461 L217.885437,167.154843 L217.885437,110.970492 L183.299029,115.463933 Z" id="Rectangle-3-Copy-8" opacity="0.704483696"></path>
                    <path d="M136.21165,127.994809 L136.21165,177.775672 L165.147573,173.552186 L165.147573,119.766476 L136.21165,127.994809 Z" id="Rectangle-3-Copy-9" opacity="0.704483696"></path>
                    <path d="M98.2949448,137.487021 L98.2949448,182.741285 L119.696887,179.7832 L119.696887,131.166624 L98.2949448,137.487021 Z" id="Rectangle-3-Copy-10" opacity="0.704483696"></path>
                    <path d="M111.726214,53.3578947 L111.726214,71 L119.943689,71 L119.943689,53.3578947 L111.726214,53.3578947 Z" id="Rectangle-3-Copy-18" opacity="0.704483696"></path>
                    <path d="M149.396117,72.2 L149.396117,89.8421053 L157.613592,89.8421053 L157.613592,72.2 L149.396117,72.2 Z" id="Rectangle-3-Copy-19" opacity="0.704483696"></path>
                    <rect id="Rectangle-4" opacity="0.704483696" x="559.998058" y="204.094737" width="8.21747573" height="21.4105263"></rect>
                    <rect id="Rectangle-4-Copy" opacity="0.704483696" x="535.512621" y="196.557895" width="8.21747573" height="21.4105263"></rect>
                    <rect id="Rectangle-4-Copy-2" opacity="0.704483696" x="511.027184" y="189.021053" width="8.21747573" height="21.4105263"></rect>
                    <rect id="Rectangle-4-Copy-3" opacity="0.704483696" x="486.541748" y="183.368421" width="8.21747573" height="21.4105263"></rect>
                    <rect id="Rectangle-4-Copy-4" opacity="0.704483696" x="463.939806" y="183.368421" width="8.21747573" height="21.4105263"></rect>
                    <rect id="Rectangle-4-Copy-5" opacity="0.704483696" x="441.337864" y="183.368421" width="8.21747573" height="21.4105263"></rect>
                    <polygon id="Path-15" opacity="0.704483696" points="570.546717 286.107432 570.546717 248.454621 565.960296 245.685228 565.960296 284.441479"></polygon>
                    <polygon id="Path-16" opacity="0.704483696" points="554.770736 242.337289 547.588531 238.99898 547.588531 279.932836 554.770736 281.441098"></polygon>
                    <polygon id="Path-18" opacity="0.704483696" points="533.409742 279.221968 533.409742 235.640279 519.911207 234.780176 519.911207 279.221968"></polygon>
                    <rect id="Rectangle-5" opacity="0.704483696" x="490.061935" y="233.439415" width="13.8679612" height="45.9052632"></rect>
                    <path d="M571.445098,342.733657 L572.045098,342.733657 L571.445098,343.333657 L571.445098,342.733657 Z M563.240045,304.060993 L563.227812,342.733657 L571.445098,342.733657 L571.445098,305.367919 L563.240045,304.060993 Z" id="Rectangle-7" opacity="0.704483696"></path>
                    <path d="M530.084225,300.241461 L530.084225,342.326316 L546.941132,342.326316 L546.941132,301.643802 L530.084225,300.241461 Z" id="Rectangle-9" opacity="0.704483696"></path>
                    <path d="M489.96841,296.453675 L489.96841,342.326316 L511.370352,342.326316 L511.370352,297.587295 L489.96841,296.453675 Z" id="Rectangle-11" opacity="0.704483696"></path>
                    <rect id="Rectangle-12" opacity="0.704483696" x="372.405863" y="284.752466" width="32.7029126" height="62.8631579"></rect>
                    <rect id="Rectangle-12-Copy" opacity="0.704483696" x="415.754828" y="284.752466" width="32.7029126" height="62.8631579"></rect>
                    <rect id="Rectangle-12-Copy-3" opacity="0.704483696" x="325.16556" y="208.496861" width="32.7029126" height="41.3654014"></rect>
                    <rect id="Rectangle-12-Copy-2" opacity="0.704483696" x="368.514526" y="208.496861" width="32.7029126" height="41.3654014"></rect>
                </g>
                <ellipse id="Oval-2-Copy-2" stroke="#FF0606" stroke-dasharray="20" transform="translate(411.391721, 424.105902) rotate(-11.000000) translate(-411.391721, -424.105902) " cx="411.391721" cy="424.105902" rx="360" ry="304"></ellipse>
            </g>
        </g>
    </g>
</svg>