<?xml version="1.0" encoding="UTF-8"?>
<svg width="641px" height="641px" viewBox="0 0 641 641" version="1.1" xmlns="http://www.w3.org/2000/svg" xmlns:xlink="http://www.w3.org/1999/xlink">
    <!-- Generator: Sketch 44.1 (41455) - http://www.bohemiancoding.com/sketch -->
    <title>Group 6</title>
    <desc>Created with Sketch.</desc>
    <defs></defs>
    <g id="Welcome" stroke="none" stroke-width="1" fill="none" fill-rule="evenodd" stroke-linecap="round" stroke-linejoin="round">
        <g id="Group-6" transform="translate(1.000000, 1.000000)" stroke-width="1.2" stroke="#FF0000">
            <g id="vliegertje-copy-3" transform="translate(319.000000, 623.500000) rotate(270.000000) translate(-319.000000, -623.500000) translate(303.500000, 604.500000)">
                <polygon id="Triangle" points="15.7935798 0.59606231 30.7935798 37.5960623 15.7935798 25.8402029"></polygon>
                <polygon id="Triangle" points="15.7935798 0.59606231 0.40881422 37.5960623 15.7935798 25.8402029"></polygon>
            </g>
            <g id="vliegertje-copy-6" transform="translate(319.000000, 15.500000) scale(-1, 1) rotate(270.000000) translate(-319.000000, -15.500000) translate(303.500000, -3.500000)">
                <polygon id="Triangle" points="15.7935798 0.59606231 30.7935798 37.5960623 15.7935798 25.8402029"></polygon>
                <polygon id="Triangle" points="15.7935798 0.59606231 0.40881422 37.5960623 15.7935798 25.8402029"></polygon>
            </g>
            <g id="vliegertje-copy-7" transform="translate(15.500000, 320.000000) scale(-1, 1) translate(-15.500000, -320.000000) translate(0.000000, 301.000000)">
                <polygon id="Triangle" points="15.7935798 0.59606231 30.7935798 37.5960623 15.7935798 25.8402029"></polygon>
                <polygon id="Triangle" points="15.7935798 0.59606231 0.40881422 37.5960623 15.7935798 25.8402029"></polygon>
            </g>
            <g id="vliegertje-copy-8" transform="translate(623.500000, 320.000000) scale(1, -1) translate(-623.500000, -320.000000) translate(608.000000, 301.000000)">
                <polygon id="Triangle" points="15.7935798 0.59606231 30.7935798 37.5960623 15.7935798 25.8402029"></polygon>
                <polygon id="Triangle" points="15.7935798 0.59606231 0.40881422 37.5960623 15.7935798 25.8402029"></polygon>
            </g>
        </g>
    </g>
</svg>