<svg width="197" height="122" viewBox="0 0 197 122" version="1.1" xmlns="http://www.w3.org/2000/svg" xmlns:xlink="http://www.w3.org/1999/xlink">
<title>museum</title>
<desc>Created using Figma</desc>
<g id="Canvas" transform="translate(-700 -369)">
<g id="museum">
<g id="Union">
<use xlink:href="#path0_fill" transform="translate(700 369)" fill="#C4C4C4"/>
</g>
<g id="Vector 5">
<use xlink:href="#path1_stroke" transform="translate(708.467 389.144)" fill="#FF0000"/>
</g>
</g>
</g>
<defs>
<path id="path0_fill" fill-rule="evenodd" d="M 33.8682 29.4221L 33.8682 38.5871C 33.7742 38.5863 33.6801 38.5859 33.5859 38.5859C 15.0369 38.5859 0 53.702 0 72.3488C 0 90.9954 15.0369 106.112 33.5859 106.112C 33.6801 106.112 33.7742 106.111 33.8682 106.11L 33.8682 110.84L 37.255 110.84L 37.255 122L 94.2664 122L 101.04 122L 158.051 122L 158.051 110.84L 161.438 110.84L 161.438 106.054C 162.092 106.092 162.751 106.112 163.414 106.112C 181.963 106.112 197 90.9954 197 72.3488C 197 53.702 181.963 38.5859 163.414 38.5859C 162.751 38.5859 162.092 38.6052 161.438 38.6434L 161.438 29.4221L 121.079 29.4221L 121.079 5.58002L 107.814 5.58002L 107.814 0L 101.04 0L 94.2664 0L 87.4928 0L 87.4928 5.58002L 74.2278 5.58002L 74.2278 29.4221L 33.8682 29.4221Z"/>
<path id="path1_stroke" d="M 120.232 24.1163L 120.232 26.1163L 122.232 26.1163L 122.232 24.1163L 120.232 24.1163ZM 98.5 24.1163L 96.5 24.1163L 96.5 26.1163L 98.5 26.1163L 98.5 24.1163ZM 98.5 6.24186L 100.5 6.24186L 100.5 4.24186L 98.5 4.24186L 98.5 6.24186ZM 84.6705 6.24186L 84.6705 4.24186L 82.6705 4.24186L 82.6705 6.24186L 84.6705 6.24186ZM 84.6705 39.1535L 84.6705 41.1535L 86.6705 41.1535L 86.6705 39.1535L 84.6705 39.1535ZM 35.2794 39.1535L 33.2794 39.1535L 33.2794 41.1535L 35.2794 41.1535L 35.2794 39.1535ZM 35.2794 24.1163L 37.2794 24.1163L 37.2794 22.1163L 35.2794 22.1163L 35.2794 24.1163ZM 22.2966 24.1163L 22.2966 22.1163L 21.4651 22.1163L 20.8786 22.7058L 22.2966 24.1163ZM 0 46.5302L -1.41792 45.1197L -2 45.7049L -2 46.5302L 0 46.5302ZM 0 64.1209L -2 64.1209L -2 66.1209L 0 66.1209L 0 64.1209ZM 46.0043 64.1209L 48.0043 64.1209L 48.0043 62.1209L 46.0043 62.1209L 46.0043 64.1209ZM 46.0043 95.614L 44.0043 95.614L 44.0043 97.614L 46.0043 97.614L 46.0043 95.614ZM 69.712 95.614L 69.712 97.614L 71.712 97.614L 71.712 95.614L 69.712 95.614ZM 69.712 86.8186L 69.712 84.8186L 67.712 84.8186L 67.712 86.8186L 69.712 86.8186ZM 107.249 86.8186L 107.249 88.8186L 109.249 88.8186L 109.249 86.8186L 107.249 86.8186ZM 107.249 64.1209L 107.249 62.1209L 105.249 62.1209L 105.249 64.1209L 107.249 64.1209ZM 126.723 64.1209L 126.723 66.1209L 128.723 66.1209L 128.723 64.1209L 126.723 64.1209ZM 126.723 46.5302L 126.723 44.5302L 124.723 44.5302L 124.723 46.5302L 126.723 46.5302ZM 145.351 46.5302L 147.351 46.5302L 147.351 44.5302L 145.351 44.5302L 145.351 46.5302ZM 145.351 73.4837L 143.351 73.4837L 143.351 75.4837L 145.351 75.4837L 145.351 73.4837ZM 166.519 73.4837L 166.519 75.4837L 168.519 75.4837L 168.519 73.4837L 166.519 73.4837ZM 166.519 34.614L 168.519 34.614L 168.519 32.614L 166.519 32.614L 166.519 34.614ZM 140.271 34.614L 138.271 34.614L 138.271 36.614L 140.271 36.614L 140.271 34.614ZM 118.232 2.55349L 118.232 24.1163L 122.232 24.1163L 122.232 2.55349L 118.232 2.55349ZM 120.232 22.1163L 98.5 22.1163L 98.5 26.1163L 120.232 26.1163L 120.232 22.1163ZM 100.5 24.1163L 100.5 6.24186L 96.5 6.24186L 96.5 24.1163L 100.5 24.1163ZM 98.5 4.24186L 84.6705 4.24186L 84.6705 8.24186L 98.5 8.24186L 98.5 4.24186ZM 82.6705 6.24186L 82.6705 39.1535L 86.6705 39.1535L 86.6705 6.24186L 82.6705 6.24186ZM 84.6705 37.1535L 35.2794 37.1535L 35.2794 41.1535L 84.6705 41.1535L 84.6705 37.1535ZM 37.2794 39.1535L 37.2794 24.1163L 33.2794 24.1163L 33.2794 39.1535L 37.2794 39.1535ZM 35.2794 22.1163L 22.2966 22.1163L 22.2966 26.1163L 35.2794 26.1163L 35.2794 22.1163ZM 20.8786 22.7058L -1.41792 45.1197L 1.41792 47.9407L 23.7145 25.5268L 20.8786 22.7058ZM -2 46.5302L -2 64.1209L 2 64.1209L 2 46.5302L -2 46.5302ZM 0 66.1209L 46.0043 66.1209L 46.0043 62.1209L 0 62.1209L 0 66.1209ZM 44.0043 64.1209L 44.0043 95.614L 48.0043 95.614L 48.0043 64.1209L 44.0043 64.1209ZM 46.0043 97.614L 69.712 97.614L 69.712 93.614L 46.0043 93.614L 46.0043 97.614ZM 71.712 95.614L 71.712 86.8186L 67.712 86.8186L 67.712 95.614L 71.712 95.614ZM 69.712 88.8186L 107.249 88.8186L 107.249 84.8186L 69.712 84.8186L 69.712 88.8186ZM 109.249 86.8186L 109.249 64.1209L 105.249 64.1209L 105.249 86.8186L 109.249 86.8186ZM 107.249 66.1209L 126.723 66.1209L 126.723 62.1209L 107.249 62.1209L 107.249 66.1209ZM 128.723 64.1209L 128.723 46.5302L 124.723 46.5302L 124.723 64.1209L 128.723 64.1209ZM 126.723 48.5302L 145.351 48.5302L 145.351 44.5302L 126.723 44.5302L 126.723 48.5302ZM 143.351 46.5302L 143.351 73.4837L 147.351 73.4837L 147.351 46.5302L 143.351 46.5302ZM 145.351 75.4837L 166.519 75.4837L 166.519 71.4837L 145.351 71.4837L 145.351 75.4837ZM 168.519 73.4837L 168.519 34.614L 164.519 34.614L 164.519 73.4837L 168.519 73.4837ZM 166.519 32.614L 140.271 32.614L 140.271 36.614L 166.519 36.614L 166.519 32.614ZM 142.271 34.614L 142.271 0L 138.271 0L 138.271 34.614L 142.271 34.614Z"/>
</defs>
</svg>
